<?xml version="1.0" encoding="utf-8"?>
<!-- Generator: Adobe Illustrator 16.0.4, SVG Export Plug-In . SVG Version: 6.00 Build 0)  -->
<!DOCTYPE svg PUBLIC "-//W3C//DTD SVG 1.1//EN" "http://www.w3.org/Graphics/SVG/1.1/DTD/svg11.dtd">
<svg version="1.1" xmlns="http://www.w3.org/2000/svg" xmlns:xlink="http://www.w3.org/1999/xlink" x="0px" y="0px" width="160px"
	 height="160px" viewBox="0 0 160 160" enable-background="new 0 0 160 160" xml:space="preserve">
<g id="Layer_1">
	<path fill="#565999" d="M144,8c0,6.326-0.002,112-0.002,112L80,158l-64-38c0,0,0-100.675,0-112C43.833,8,116.167,8,144,8 M144,6H16
		c-1.104,0-2,0.896-2,2v112c0,0.706,0.372,1.359,0.979,1.72l64,38C79.293,159.906,79.646,160,80,160s0.707-0.094,1.021-0.28
		l63.998-38c0.606-0.36,0.979-1.014,0.979-1.72L146,8C146,6.896,145.104,6,144,6L144,6z"/>
	<polygon fill="#565999" points="138.502,16.214 21.498,117.07 21.498,117.078 23.326,118.135 138.502,18.854 	"/>
</g>
<g id="Layer_2">
</g>
</svg>
