<?xml version="1.0" encoding="utf-8"?>
<!-- Generator: Adobe Illustrator 16.0.4, SVG Export Plug-In . SVG Version: 6.00 Build 0)  -->
<!DOCTYPE svg PUBLIC "-//W3C//DTD SVG 1.1//EN" "http://www.w3.org/Graphics/SVG/1.1/DTD/svg11.dtd">
<svg version="1.1" xmlns="http://www.w3.org/2000/svg" xmlns:xlink="http://www.w3.org/1999/xlink" x="0px" y="0px" width="160px"
	 height="160px" viewBox="0 0 160 160" enable-background="new 0 0 160 160" xml:space="preserve">
<g id="Layer_1">
	<path fill="#2CA699" d="M66.4,93.602v54.399H12V93.602H66.4 M66.4,91.602H12c-1.104,0-2,0.896-2,2v54.399c0,1.104,0.896,2,2,2h54.4
		c1.104,0,2-0.896,2-2V93.602C68.4,92.497,67.504,91.602,66.4,91.602L66.4,91.602z"/>
	<circle fill="#2CA699" cx="38.685" cy="120.802" r="3"/>
	<g>
		<path fill="#2CA699" d="M148,10H12c-1.104,0-2,0.896-2,2v17.201c-0.001,0.553,0.446,1,0.999,1s1-0.447,1-1H12V12h136v136h-17.2
			v0.004c-0.548,0.006-0.989,0.448-0.989,0.997s0.441,0.991,0.989,0.998V150h0.007c0.002,0,0.003,0.001,0.004,0.001
			c0.002,0,0.004-0.001,0.006-0.001H148c1.104,0,2-0.896,2-2V12C150,10.896,149.104,10,148,10z"/>
		<path fill="#2CA699" d="M120.8,37.201H12c-1.104,0-2,0.896-2,2V56.4h0.001c0.001,0.551,0.447,0.996,0.998,0.996
			s0.997-0.445,0.999-0.996H12V39.201h108.8V148h-17.2v0.005c-0.545,0.008-0.984,0.449-0.984,0.996s0.439,0.988,0.984,0.997V150
			h0.012c0.002,0,0.003,0.001,0.004,0.001c0.002,0,0.004-0.001,0.006-0.001H120.8c1.104,0,2-0.896,2-2V39.201
			C122.8,38.097,121.904,37.201,120.8,37.201z"/>
		<path fill="#2CA699" d="M95.6,66.4c0-1.104-0.895-2-2-2H12c-1.104,0-2,0.896-2,2v17.2h0.001L10,83.604
			c-0.001,0.553,0.446,1,0.999,1s1-0.447,1-1l-0.001-0.004H12V66.4h81.6V148H76.4v0.004c-0.549,0.003-0.992,0.447-0.992,0.997
			s0.443,0.994,0.992,0.998V150h0.003c0.002,0,0.003,0.001,0.005,0.001S76.411,150,76.413,150H93.6c1.105,0,2-0.896,2-2"/>
	</g>
</g>
<g id="Layer_2">
</g>
</svg>
