<?xml version="1.0" encoding="utf-8"?>
<!-- Generator: Adobe Illustrator 16.0.4, SVG Export Plug-In . SVG Version: 6.00 Build 0)  -->
<!DOCTYPE svg PUBLIC "-//W3C//DTD SVG 1.1//EN" "http://www.w3.org/Graphics/SVG/1.1/DTD/svg11.dtd">
<svg version="1.1" xmlns="http://www.w3.org/2000/svg" xmlns:xlink="http://www.w3.org/1999/xlink" x="0px" y="0px" width="160px"
	 height="160px" viewBox="0 0 160 160" enable-background="new 0 0 160 160" xml:space="preserve">
<g id="Layer_1">
	<path fill="#DE4F4F" d="M35.601,30.167v5.375h89.799c0.553,0,1,0.447,1,1v7.375c0,0.553-0.447,1-1,1H35.601v5.375h89.799
		c0.553,0,1,0.447,1,1v7.375c0,0.553-0.447,1-1,1H35.601v5.375h89.799c0.553,0,1,0.447,1,1v7.375c0,0.551-0.447,1-1,1H35.601v5.375
		h89.799c0.553,0,1,0.447,1,1v7.375c0,0.551-0.447,1-1,1H35.601v5.375h89.799c0.553,0,1,0.447,1,1v7.375c0,0.551-0.447,1-1,1H35.601
		v5.375h89.799c0.553,0,1,0.447,1,1v7.375c0,0.551-0.447,1-1,1H35.601v5.375h89.799c0.553,0,1,0.447,1,1v7.375c0,0.551-0.447,1-1,1
		H35.601v5.375H80c0.552,0,1,0.447,1,1v10.873c1.162,0.413,2,1.511,2,2.816c0,1.656-1.343,3-3,3s-3-1.344-3-3
		c0-1.306,0.837-2.403,2-2.816v-9.873H34.601c-0.553,0-1-0.449-1-1v-7.375c0-0.553,0.447-1,1-1h89.799v-5.375H34.601
		c-0.553,0-1-0.449-1-1v-7.375c0-0.553,0.447-1,1-1h89.799v-5.375H34.601c-0.553,0-1-0.449-1-1v-7.375c0-0.553,0.447-1,1-1h89.799
		v-5.375H34.601c-0.553,0-1-0.449-1-1v-7.375c0-0.553,0.447-1,1-1h89.799v-5.375H34.601c-0.553,0-1-0.449-1-1v-7.375
		c0-0.553,0.447-1,1-1h89.799v-5.375H34.601c-0.553,0-1-0.447-1-1v-7.375c0-0.553,0.447-1,1-1h89.799v-5.375H34.601
		c-0.553,0-1-0.447-1-1v-7.375c0-0.553,0.447-1,1-1h89.799v-5.375H34.601c-0.553,0-1-0.447-1-1v-7.375c0-0.553,0.447-1,1-1h89.799
		v-5.375H34.601c-0.553,0-1-0.447-1-1s0.447-1,1-1h90.799c0.553,0,1,0.447,1,1v7.375c0,0.553-0.447,1-1,1H35.601z M138,6.564H22
		c-1.104,0-2,0.896-2,2v143.999c0,1.105,0.896,2,2,2h48.995c0.258,0.001,0.516-0.096,0.712-0.292c0.391-0.391,0.391-1.023,0-1.414
		c-0.195-0.195-0.451-0.293-0.707-0.293v-0.001H22V8.564h116v143.999H89.006v0.002c-0.258-0.001-0.517,0.096-0.713,0.292
		c-0.391,0.391-0.39,1.023,0,1.414c0.196,0.197,0.455,0.293,0.713,0.292H138c1.104,0,2-0.895,2-2V8.564
		C140,7.46,139.104,6.564,138,6.564z"/>
</g>
<g id="Layer_2">
</g>
</svg>
