<?xml version="1.0" encoding="utf-8"?>
<!-- Generator: Adobe Illustrator 16.0.4, SVG Export Plug-In . SVG Version: 6.00 Build 0)  -->
<!DOCTYPE svg PUBLIC "-//W3C//DTD SVG 1.1//EN" "http://www.w3.org/Graphics/SVG/1.1/DTD/svg11.dtd">
<svg version="1.1" xmlns="http://www.w3.org/2000/svg" xmlns:xlink="http://www.w3.org/1999/xlink" x="0px" y="0px" width="160px"
	 height="160px" viewBox="0 0 160 160" enable-background="new 0 0 160 160" xml:space="preserve">
<g id="Layer_1">
	<path fill="#2CA699" stroke="#384B70" stroke-width="2" stroke-miterlimit="10" d="M129.677,92.902"/>
	<path fill="#2CA699" d="M150.189,90.012l-68.774,68.775c-0.375,0.375-0.885,0.586-1.414,0.586c-0.531,0-1.039-0.211-1.414-0.586
		L9.812,90.012c-0.781-0.781-0.781-2.047,0-2.828l1.422-1.422l0.008,0.008c0.182-0.18,0.432-0.293,0.707-0.293c0.553,0,1,0.447,1,1
		c0,0.299-0.138,0.561-0.346,0.744l-1.377,1.377l68.775,68.775l68.774-68.775L80.001,19.821l-51.23,51.231
		c0.163,0.369,0.258,0.777,0.258,1.209c0,1.656-1.344,3-3,3c-1.658,0-3-1.344-3-3c0-1.658,1.342-3,3-3
		c0.493,0,0.952,0.131,1.363,0.342l51.195-51.196c0.375-0.375,0.883-0.586,1.414-0.586c0.529,0,1.039,0.211,1.414,0.586
		l68.774,68.776C150.971,87.965,150.971,89.23,150.189,90.012z M150.189,69.988L81.415,1.213c-0.375-0.374-0.885-0.585-1.414-0.585
		c-0.531,0-1.039,0.211-1.414,0.585L9.812,69.988c-0.781,0.781-0.781,2.047,0,2.828l68.775,68.775
		c0.375,0.375,0.883,0.586,1.414,0.586c0.529,0,1.039-0.211,1.414-0.586l51.049-51.051c0.4,0.199,0.846,0.32,1.323,0.32
		c1.657,0,3-1.344,3-3c0-1.658-1.343-3-3-3s-3,1.342-3,3c0,0.447,0.104,0.869,0.28,1.25l-51.066,51.066L11.226,71.402L80.001,2.627
		l68.774,68.775l-1.575,1.576l0.002,0.002c-0.181,0.182-0.293,0.432-0.293,0.707c0,0.553,0.448,1,1,1
		c0.284,0,0.537-0.121,0.72-0.311l1.561-1.561C150.971,72.035,150.971,70.77,150.189,69.988z"/>
</g>
<g id="Layer_2">
</g>
</svg>
