<?xml version="1.0" encoding="utf-8"?>
<!-- Generator: Adobe Illustrator 16.0.4, SVG Export Plug-In . SVG Version: 6.00 Build 0)  -->
<!DOCTYPE svg PUBLIC "-//W3C//DTD SVG 1.1//EN" "http://www.w3.org/Graphics/SVG/1.1/DTD/svg11.dtd">
<svg version="1.1" xmlns="http://www.w3.org/2000/svg" xmlns:xlink="http://www.w3.org/1999/xlink" x="0px" y="0px" width="160px"
	 height="160px" viewBox="0 0 160 160" enable-background="new 0 0 160 160" xml:space="preserve">
<g id="Layer_1">
	<path fill="#7482E6" d="M135.827,142.39c-0.256,0-0.512-0.098-0.707-0.293c-0.391-0.391-0.391-1.023,0-1.414
		c14.724-14.723,22.832-34.299,22.832-55.121c0-20.82-8.108-40.396-22.832-55.119S100.822,7.61,80,7.61
		c-20.82,0-40.396,8.109-55.119,22.832C10.157,45.165,2.049,64.741,2.049,85.562c0,20.822,8.108,40.398,22.832,55.121
		c0.391,0.391,0.391,1.023,0,1.414s-1.023,0.391-1.414,0C8.365,126.995,0.049,106.919,0.049,85.562
		c0-21.355,8.316-41.432,23.418-56.533C38.567,13.927,58.645,5.61,80,5.61c21.356,0,41.434,8.316,56.534,23.418
		c15.102,15.102,23.418,35.178,23.418,56.533c0,21.357-8.316,41.434-23.418,56.535C136.339,142.292,136.083,142.39,135.827,142.39z
		 M10.875,82.61c-1.658,0-3,1.344-3,3c0,1.658,1.342,3,3,3c1.656,0,3-1.342,3-3C13.875,83.954,12.531,82.61,10.875,82.61z
		 M148.916,82.61c-1.656,0-3,1.344-3,3c0,1.658,1.344,3,3,3c1.658,0,3-1.342,3-3C151.916,83.954,150.574,82.61,148.916,82.61z
		 M77,16.642c0,1.658,1.344,3,3,3c1.658,0,3-1.342,3-3c0-1.656-1.342-3-3-3C78.344,13.642,77,14.985,77,16.642z M126.684,136.538
		c1.173,1.172,3.071,1.172,4.243,0s1.173-3.07,0-4.242c-1.171-1.172-3.071-1.172-4.243,0S125.514,135.366,126.684,136.538z
		 M29.074,38.927c1.172,1.172,3.07,1.172,4.242,0s1.172-3.07,0-4.242s-3.07-1.172-4.242,0S27.902,37.755,29.074,38.927z
		 M130.927,38.927c1.172-1.172,1.172-3.07,0-4.242s-3.07-1.172-4.242,0s-1.172,3.07,0,4.242S129.755,40.099,130.927,38.927z
		 M33.316,136.538c1.172-1.172,1.172-3.07,0-4.242s-3.071-1.172-4.243,0s-1.172,3.07,0,4.242S32.145,137.71,33.316,136.538z
		 M142.619,114.796c1.533,0.635,3.287-0.092,3.92-1.623c0.635-1.531-0.092-3.285-1.623-3.92c-1.529-0.635-3.285,0.094-3.92,1.623
		C140.361,112.409,141.09,114.161,142.619,114.796z M15.086,61.968c1.531,0.635,3.285-0.092,3.92-1.623s-0.094-3.285-1.625-3.92
		c-1.529-0.633-3.285,0.094-3.918,1.623C12.828,59.581,13.555,61.335,15.086,61.968z M109.186,22.991
		c0.635-1.531-0.092-3.285-1.623-3.92c-1.531-0.633-3.285,0.092-3.92,1.623s0.092,3.287,1.625,3.92
		C106.797,25.249,108.551,24.522,109.186,22.991z M144.916,61.97c1.532-0.635,2.259-2.389,1.624-3.92s-2.388-2.258-3.921-1.623
		c-1.529,0.633-2.256,2.389-1.623,3.918C141.632,61.878,143.385,62.603,144.916,61.97z M17.381,114.794
		c1.531-0.633,2.258-2.387,1.625-3.918c-0.635-1.533-2.389-2.258-3.92-1.625c-1.531,0.635-2.258,2.389-1.624,3.92
		S15.85,115.429,17.381,114.794z M56.359,20.696c-0.635-1.531-2.389-2.258-3.92-1.625c-1.531,0.635-2.258,2.389-1.623,3.92
		c0.633,1.531,2.389,2.258,3.92,1.623S56.993,22.226,56.359,20.696z M120.64,44.972c-0.391-0.391-1.023-0.391-1.414,0L81.287,82.91
		c-0.392-0.187-0.824-0.3-1.287-0.3c-1.656,0-3,1.342-3,3c0,1.656,1.344,3,3,3c1.658,0,3-1.344,3-3c0-0.463-0.113-0.896-0.299-1.286
		l37.938-37.938C121.03,45.995,121.03,45.362,120.64,44.972z"/>
</g>
<g id="Layer_2">
</g>
</svg>
