<?xml version="1.0" encoding="utf-8"?>
<!-- Generator: Adobe Illustrator 16.0.4, SVG Export Plug-In . SVG Version: 6.00 Build 0)  -->
<!DOCTYPE svg PUBLIC "-//W3C//DTD SVG 1.1//EN" "http://www.w3.org/Graphics/SVG/1.1/DTD/svg11.dtd">
<svg version="1.1" xmlns="http://www.w3.org/2000/svg" xmlns:xlink="http://www.w3.org/1999/xlink" x="0px" y="0px" width="160px"
	 height="160px" viewBox="0 0 160 160" enable-background="new 0 0 160 160" xml:space="preserve">
<g id="Layer_1">
	<path fill="#DE4F4F" d="M159.707,0.293c-0.391-0.391-1.023-0.391-1.414,0L81.286,77.299c-0.392-0.187-0.824-0.3-1.287-0.3
		c-1.656,0-3,1.342-3,3c0,1.656,1.344,3,3,3c1.658,0,3-1.344,3-3c0-0.463-0.113-0.896-0.299-1.286l77.007-77.006
		C160.098,1.316,160.098,0.684,159.707,0.293z"/>
	<path fill="#DE4F4F" d="M107.525,65.787c-0.013-0.032-0.029-0.061-0.045-0.092c-0.014-0.025-0.024-0.053-0.038-0.078l-0.01,0.007
		c-0.177-0.284-0.477-0.483-0.836-0.483c-0.552,0-0.999,0.447-0.999,1c0,0.198,0.071,0.371,0.17,0.526l-0.03,0.02
		C107.812,70.678,109,75.199,109,80c0,15.99-13.01,29-29,29S51,95.99,51,80s13.01-29,29-29c4.842,0,9.4,1.208,13.417,3.315
		l0.006-0.011c0.13,0.062,0.271,0.102,0.424,0.102c0.553,0,1-0.447,1-1c0-0.369-0.209-0.678-0.506-0.851l0.009-0.017
		C90.058,50.29,85.183,49,80,49c-17.121,0-31,13.879-31,31s13.879,31,31,31s31-13.879,31-31
		C111,74.871,109.732,70.047,107.525,65.787z"/>
	<path fill="#DE4F4F" d="M119.206,54.113c-0.006-0.015-0.018-0.024-0.024-0.038c-0.034-0.052-0.066-0.106-0.102-0.158l-0.004,0.002
		c-0.182-0.248-0.461-0.419-0.792-0.419c-0.552,0-0.999,0.447-0.999,1c0,0.17,0.053,0.323,0.128,0.464l-0.041,0.025
		C122.179,62.148,125,70.747,125,80c0,24.813-20.187,45-45,45s-45-20.187-45-45s20.187-45,45-45c9.229,0,17.807,2.806,24.954,7.591
		l0.031-0.043c0.159,0.108,0.341,0.187,0.549,0.187c0.553,0,1-0.447,1-1c0-0.42-0.26-0.776-0.626-0.925
		C98.479,35.887,89.581,33,80,33c-25.957,0-47,21.043-47,47s21.043,47,47,47s47-21.043,47-47
		C127,70.429,124.121,61.539,119.206,54.113z"/>
	<path fill="#DE4F4F" d="M130.568,42.468l-0.022,0.014c-0.179-0.273-0.473-0.466-0.824-0.466c-0.552,0-0.999,0.447-0.999,1
		c0,0.19,0.067,0.359,0.159,0.511l-0.031,0.02C136.468,53.725,141,66.338,141,80c0,33.636-27.364,61-61,61s-61-27.364-61-61
		s27.364-61,61-61c13.628,0,26.212,4.511,36.378,12.094l0.035-0.042c0.167,0.126,0.364,0.214,0.59,0.214c0.553,0,1-0.447,1-1
		c0-0.312-0.15-0.578-0.372-0.761C107.127,21.664,94.114,17,80,17c-34.794,0-63,28.206-63,63s28.206,63,63,63s63-28.206,63-63
		C143,65.93,138.365,52.953,130.568,42.468z"/>
	<path fill="#DE4F4F" d="M142.66,30.295l-0.021,0.016c-0.182-0.248-0.461-0.42-0.793-0.42c-0.552,0-0.999,0.447-0.999,1
		c0,0.229,0.09,0.431,0.22,0.6l-0.037,0.027C151.637,44.842,158,61.687,158,80c0,43.01-34.99,78-78,78S2,123.01,2,80S36.99,2,80,2
		c18.319,0,35.169,6.366,48.493,16.979l0.038-0.046c0.165,0.122,0.359,0.208,0.581,0.208c0.553,0,1-0.447,1-1
		c0-0.29-0.127-0.546-0.324-0.729l0.003-0.004C116.126,6.522,98.829,0,80,0C35.817,0,0,35.817,0,80s35.817,80,80,80s80-35.817,80-80
		C160,61.21,153.505,43.947,142.66,30.295z"/>
	<path fill="#DE4F4F" d="M95.858,77.94l-0.021,0.001c0.001-0.018,0.01-0.033,0.01-0.051c0-0.553-0.447-1-1-1
		c-0.552,0-0.999,0.447-0.999,1c0,0.036,0.017,0.067,0.021,0.103l-0.036,0.001C93.932,78.651,94,79.317,94,80c0,7.72-6.28,14-14,14
		s-14-6.28-14-14s6.28-14,14-14c0.72,0,1.421,0.073,2.11,0.182l0.002-0.025c0.553,0,1-0.447,1-1c0-0.496-0.366-0.889-0.84-0.968
		l0.001-0.013c-0.05-0.008-0.101-0.01-0.15-0.018c-0.004,0-0.007-0.002-0.011-0.002l-0.003,0.001C81.419,64.061,80.717,64,80,64
		c-8.836,0-16,7.164-16,16s7.164,16,16,16s16-7.164,16-16C96,79.301,95.949,78.614,95.858,77.94z"/>
</g>
<g id="Layer_2">
</g>
</svg>
