<?xml version="1.0" encoding="utf-8"?>
<!-- Generator: Adobe Illustrator 16.0.4, SVG Export Plug-In . SVG Version: 6.00 Build 0)  -->
<!DOCTYPE svg PUBLIC "-//W3C//DTD SVG 1.1//EN" "http://www.w3.org/Graphics/SVG/1.1/DTD/svg11.dtd">
<svg version="1.1" xmlns="http://www.w3.org/2000/svg" xmlns:xlink="http://www.w3.org/1999/xlink" x="0px" y="0px" width="160px"
	 height="160px" viewBox="0 0 160 160" enable-background="new 0 0 160 160" xml:space="preserve">
<g id="Layer_1">
	<path fill="#565999" d="M151.598,42.24c-0.002-0.729-0.391-1.401-1.021-1.766L81.023,0.264C80.707,0.081,80.353-0.011,80-0.011
		s-0.707,0.092-1.023,0.274L9.423,40.476c-0.63,0.364-1.019,1.036-1.021,1.765H8.401v75.567h0.008
		c0.022,0.705,0.4,1.353,1.014,1.707l69.553,40.211C79.292,159.908,79.646,160,80,160s0.707-0.092,1.024-0.274l69.553-40.212
		c0.613-0.354,0.99-1.002,1.014-1.706h0.01V42.24H151.598z M149.598,42.246l0.002,0.537v73.781L82.946,78.083
		c0.105-0.559,0.056-1.151-0.181-1.714c-0.34-0.811-0.998-1.385-1.766-1.657V2.561L149.598,42.246z M79,2.561v72.153
		c-0.054,0.02-0.108,0.027-0.162,0.05c-1.327,0.558-2.041,1.958-1.785,3.317l-66.652,38.481l0.022-74.355L79,2.561z M79.977,157.994
		L11.38,118.307l66.684-38.5c0.834,0.708,2.018,0.942,3.096,0.49c0.292-0.122,0.543-0.296,0.772-0.49l66.709,38.515L79.977,157.994z
		"/>
</g>
<g id="Layer_2">
</g>
</svg>
