<?xml version="1.0" encoding="utf-8"?>
<!-- Generator: Adobe Illustrator 16.0.4, SVG Export Plug-In . SVG Version: 6.00 Build 0)  -->
<!DOCTYPE svg PUBLIC "-//W3C//DTD SVG 1.1//EN" "http://www.w3.org/Graphics/SVG/1.1/DTD/svg11.dtd">
<svg version="1.1" xmlns="http://www.w3.org/2000/svg" xmlns:xlink="http://www.w3.org/1999/xlink" x="0px" y="0px" width="160px"
	 height="160px" viewBox="0 0 160 160" enable-background="new 0 0 160 160" xml:space="preserve">
<g id="Layer_1">
	<path fill="#BDA671" d="M80,2c43.01,0,78,34.99,78,78s-34.99,78-78,78S2,123.01,2,80S36.99,2,80,2 M80,0C35.817,0,0,35.817,0,80
		s35.817,80,80,80s80-35.817,80-80S124.183,0,80,0L80,0z"/>
	<circle fill="#BDA671" cx="149.125" cy="79.773" r="3"/>
	<circle fill="#BDA671" cx="11.084" cy="79.773" r="3"/>
	<circle fill="#BDA671" cx="80" cy="148.74" r="3"/>
	<circle fill="#BDA671" cx="31.195" cy="30.967" r="3"/>
	<circle fill="#BDA671" cx="128.805" cy="128.577" r="2.999"/>
	<circle fill="#BDA671" cx="31.194" cy="128.577" r="2.999"/>
	<circle fill="#BDA671" cx="128.805" cy="30.967" r="3"/>
	<circle fill="#BDA671" cx="16.232" cy="53.357" r="3"/>
	<circle fill="#BDA671" cx="143.767" cy="106.188" r="3"/>
	<circle fill="#BDA671" cx="53.586" cy="143.539" r="3"/>
	<circle fill="#BDA671" cx="16.232" cy="106.186" r="3"/>
	<circle fill="#BDA671" cx="143.767" cy="53.359" r="3"/>
	<circle fill="#BDA671" cx="106.412" cy="143.538" r="3"/>
	<path fill="#BDA671" d="M120.639,120.412c0.391-0.391,0.391-1.023,0-1.414L82.699,81.06C82.887,80.668,83,80.235,83,79.772
		c0-1.656-1.342-3-3-3c-1.656,0-3,1.344-3,3c0,1.658,1.344,3,3,3c0.463,0,0.895-0.113,1.285-0.299l37.939,37.938
		C119.615,120.803,120.248,120.803,120.639,120.412z"/>
	<circle fill="#BDA671" cx="10.874" cy="79.749" r="3"/>
	<circle fill="#BDA671" cx="148.915" cy="79.749" r="3"/>
	<circle fill="#BDA671" cx="79.999" cy="10.782" r="3"/>
	<circle fill="#BDA671" cx="128.804" cy="128.556" r="3"/>
	<circle fill="#BDA671" cx="31.194" cy="30.945" r="2.999"/>
	<circle fill="#BDA671" cx="128.805" cy="30.945" r="2.999"/>
	<circle fill="#BDA671" cx="31.194" cy="128.556" r="3"/>
	<circle fill="#BDA671" cx="143.767" cy="106.165" r="3"/>
	<circle fill="#BDA671" cx="16.232" cy="53.335" r="3"/>
	<circle fill="#BDA671" cx="106.413" cy="15.983" r="3"/>
	<circle fill="#BDA671" cx="143.767" cy="53.337" r="3"/>
	<circle fill="#BDA671" cx="16.232" cy="106.163" r="3"/>
	<circle fill="#BDA671" cx="53.587" cy="15.984" r="3"/>
	<path fill="#BDA671" d="M120.639,39.11c-0.391-0.391-1.023-0.391-1.414,0L81.286,77.05c-0.392-0.188-0.824-0.301-1.287-0.301
		c-1.656,0-3,1.342-3,3c0,1.656,1.344,3,3,3c1.658,0,3-1.344,3-3c0-0.463-0.113-0.895-0.299-1.285l37.938-37.939
		C121.029,40.134,121.029,39.501,120.639,39.11z"/>
</g>
<g id="Layer_2">
</g>
</svg>
