<?xml version="1.0" encoding="utf-8"?>
<!-- Generator: Adobe Illustrator 16.0.4, SVG Export Plug-In . SVG Version: 6.00 Build 0)  -->
<!DOCTYPE svg PUBLIC "-//W3C//DTD SVG 1.1//EN" "http://www.w3.org/Graphics/SVG/1.1/DTD/svg11.dtd">
<svg version="1.1" xmlns="http://www.w3.org/2000/svg" xmlns:xlink="http://www.w3.org/1999/xlink" x="0px" y="0px" width="160px"
	 height="160px" viewBox="0 0 160 160" enable-background="new 0 0 160 160" xml:space="preserve">
<g id="Layer_1">
</g>
<g id="Layer_2">
	<path fill="#BDA671" d="M80,2c43.01,0,78,34.99,78,78s-34.99,78-78,78S2,123.01,2,80S36.99,2,80,2 M80,0C35.818,0,0,35.817,0,80
		s35.818,80,80,80c44.184,0,80-35.817,80-80S124.184,0,80,0L80,0z M21.916,125.589c0.441-0.493,0.896-0.973,1.351-1.455
		c-0.003-0.002-0.005-0.004-0.007-0.007c9.796-13.544,35.113-23.85,42.286-24.991c3.718-0.591,3.97-8.358,3.983-9.909l0.003-0.422
		l-0.3-0.298c-0.088-0.086-8.812-8.834-10.703-20.389l-0.137-0.838h-0.85c-1.545,0-3.111-1.651-4.088-4.31
		c-1.35-3.673-1.293-8.841,1.469-11.186l0.375-0.317l-0.023-0.491c-0.02-0.416-0.085-1.039-0.17-1.831
		c-0.547-5.087-2-18.6,5.482-26.93c4.357-4.851,11.15-7.311,20.189-7.311s15.832,2.46,20.189,7.312
		c7.482,8.331,6.029,21.844,5.482,26.931c-0.086,0.791-0.151,1.413-0.171,1.828l-0.022,0.492l0.374,0.317
		c2.762,2.345,2.818,7.513,1.47,11.185c-0.977,2.658-2.543,4.311-4.088,4.311h-0.85l-0.138,0.838
		c-1.888,11.533-10.615,20.303-10.704,20.39l-0.299,0.298l0.004,0.421c0.012,1.551,0.265,9.318,3.982,9.909
		c7.178,1.143,32.51,11.449,42.305,24.992c-0.002,0.002-0.004,0.004-0.006,0.007c0.453,0.481,0.908,0.962,1.35,1.454
		c0.223-0.234,0.457-0.457,0.676-0.695l0.539-0.584l-0.447-0.656c-9.253-13.589-35.174-25.071-44.102-26.492
		c-1.395-0.222-2.199-4.394-2.289-7.544c1.601-1.678,8.812-9.72,10.832-20.423c2.102-0.43,3.971-2.431,5.111-5.535
		c1.561-4.247,1.449-9.979-1.668-13.047c0.03-0.341,0.076-0.762,0.129-1.25c0.573-5.33,2.096-19.488-5.983-28.482
		c-4.753-5.291-12.046-7.975-21.677-7.975s-16.924,2.684-21.677,7.975c-8.078,8.992-6.557,23.15-5.983,28.479
		c0.053,0.49,0.098,0.911,0.128,1.253c-3.116,3.068-3.228,8.801-1.668,13.048c1.14,3.104,3.01,5.104,5.111,5.534
		c2.02,10.703,9.231,18.745,10.833,20.423c-0.09,3.15-0.896,7.322-2.29,7.544c-8.923,1.42-34.829,12.9-44.083,26.492l-0.447,0.656
		l0.539,0.584C21.459,125.132,21.693,125.354,21.916,125.589z"/>
</g>
</svg>
