<?xml version="1.0" encoding="utf-8"?>
<!-- Generator: Adobe Illustrator 16.0.4, SVG Export Plug-In . SVG Version: 6.00 Build 0)  -->
<!DOCTYPE svg PUBLIC "-//W3C//DTD SVG 1.1//EN" "http://www.w3.org/Graphics/SVG/1.1/DTD/svg11.dtd">
<svg version="1.1" xmlns="http://www.w3.org/2000/svg" xmlns:xlink="http://www.w3.org/1999/xlink" x="0px" y="0px" width="160px"
	 height="160px" viewBox="0 0 160 160" enable-background="new 0 0 160 160" xml:space="preserve">
<g id="Layer_1">
	<path fill="#565999" d="M79.999,80.393c0.553,0,1-0.447,1-1V7.739c0.409-0.145,0.795-0.37,1.122-0.697
		c1.172-1.172,1.172-3.07,0-4.243c-1.171-1.171-3.071-1.171-4.242,0c-1.173,1.173-1.172,3.071,0,4.243
		c0.326,0.327,0.713,0.553,1.12,0.697v71.653C78.999,79.945,79.447,80.393,79.999,80.393z"/>
	<path fill="#565999" d="M145.414,92.582l-1.332-1.333c-0.182-0.187-0.434-0.304-0.715-0.304c-0.552,0-0.999,0.447-0.999,1
		c-0.001,0.276,0.111,0.526,0.292,0.707l-0.002,0.002L144,93.996l-64,64.001l-64-64l1.382-1.382l-0.003-0.002
		c0.182-0.182,0.293-0.431,0.293-0.707c0-0.553-0.447-1-1-1c-0.281,0-0.533,0.118-0.715,0.305l-1.371,1.372
		C14.211,92.958,14,93.467,14,93.997s0.211,1.039,0.586,1.414l64,64c0.375,0.375,0.884,0.586,1.414,0.586s1.039-0.211,1.414-0.586
		l64-64.001C146.195,94.629,146.195,93.363,145.414,92.582z"/>
	<path fill="#565999" d="M145.414,76.113L89.729,20.429l-0.005,0.006c-0.181-0.182-0.431-0.294-0.708-0.294
		c-0.552,0-0.999,0.447-0.999,1c-0.001,0.292,0.128,0.549,0.327,0.731L144,77.527l-64,63.999L16,77.528l55.656-55.656
		c0.199-0.183,0.328-0.439,0.328-0.731c0-0.553-0.447-1-1-1c-0.275,0-0.525,0.112-0.707,0.293l-0.006-0.006L14.586,76.114
		C14.211,76.489,14,76.998,14,77.528s0.211,1.039,0.586,1.414l64,63.998c0.391,0.391,0.902,0.586,1.414,0.586
		s1.023-0.195,1.414-0.586l64-63.999c0.375-0.375,0.586-0.884,0.586-1.414S145.789,76.488,145.414,76.113z"/>
</g>
<g id="Layer_2">
</g>
</svg>
