<?xml version="1.0" encoding="utf-8"?>
<!-- Generator: Adobe Illustrator 16.0.4, SVG Export Plug-In . SVG Version: 6.00 Build 0)  -->
<!DOCTYPE svg PUBLIC "-//W3C//DTD SVG 1.1//EN" "http://www.w3.org/Graphics/SVG/1.1/DTD/svg11.dtd">
<svg version="1.1" xmlns="http://www.w3.org/2000/svg" xmlns:xlink="http://www.w3.org/1999/xlink" x="0px" y="0px" width="160px"
	 height="160px" viewBox="0 0 160 160" enable-background="new 0 0 160 160" xml:space="preserve">
<g id="Layer_1">
	<path fill="#DE4F4F" d="M80,2c43.01,0,78,34.99,78,78s-34.99,78-78,78S2,123.01,2,80S36.99,2,80,2 M80,0C35.817,0,0,35.817,0,80
		s35.817,80,80,80s80-35.817,80-80S124.183,0,80,0L80,0z"/>
	<circle fill="#DE4F4F" cx="80" cy="126" r="3"/>
	<path fill="#DE4F4F" d="M79.999,109.083c0.553,0,1-0.447,1-1H81V27.752h-0.001c0-0.553-0.447-1-1-1c-0.552,0-0.999,0.447-0.999,1
		v80.331C78.999,108.636,79.446,109.083,79.999,109.083z"/>
</g>
<g id="Layer_2">
</g>
</svg>
