<?xml version="1.0" encoding="UTF-8" standalone="no"?>
<svg width="1660px" height="243px" viewBox="0 0 1660 243" version="1.1" xmlns="http://www.w3.org/2000/svg" xmlns:xlink="http://www.w3.org/1999/xlink">
    <!-- Generator: Sketch 40.3 (33839) - http://www.bohemiancoding.com/sketch -->
    <title>Group 2</title>
    <desc>Created with Sketch.</desc>
    <defs></defs>
    <g id="Page-1" stroke="none" stroke-width="1" fill="none" fill-rule="evenodd">
        <g id="Group-2" transform="translate(0.000000, -1.000000)" fill="#FFFFFF">
            <g id="apollo">
                <g id="Group" transform="translate(414.203606, 122.366366) scale(1, -1) translate(-414.203606, -122.366366) translate(0.220343, 0.876827)">
                    <polygon id="Shape" points="134.888359 173.056756 109.863953 173.056756 73.7329142 79.8739995 96.3682108 79.8739995 102.272534 95.6583075 136.41179 95.6583075 130.231603 113.124257 107.754825 113.124257 122.376671 153.218711 148.38616 79.8739995 171.019398 79.8739995"></polygon>
                    <polygon id="Shape" points="513.058195 173.056756 533.043766 173.056756 533.043766 97.3368799 572.454153 97.3368799 572.454153 79.8739995 513.058195 79.8739995"></polygon>
                    <polygon id="Shape" points="627.753839 173.056756 647.738721 173.056756 647.738721 97.3368799 687.149798 97.3368799 687.149798 79.8739995 627.753839 79.8739995"></polygon>
                    <path d="M401.433741,156.227105 C417.809604,156.227105 431.132734,142.907068 431.132734,126.531502 C431.132734,110.157963 417.809604,96.8358981 401.433741,96.8358981 C385.057879,96.8358981 371.736776,110.157963 371.736776,126.531502 C371.736776,142.908082 385.057879,156.227105 401.433741,156.227105 L401.433741,156.227105 Z M401.434755,175.104728 C374.85273,175.104728 353.303547,153.557498 353.303547,126.977881 C353.303547,100.398265 374.85273,78.8500132 401.434755,78.8500132 C428.01678,78.8500132 449.565963,100.398265 449.565963,126.977881 C449.565963,153.557498 428.017801,175.104728 401.434755,175.104728 L401.434755,175.104728 L401.434755,175.104728 Z" id="Shape"></path>
                    <path d="M779.313913,156.227105 C795.691244,156.227105 809.01392,142.907068 809.01392,126.531502 C809.01392,110.157963 795.691244,96.8358981 779.313913,96.8358981 C762.938609,96.8358981 749.617961,110.157963 749.617961,126.531502 C749.617961,142.908082 762.938609,156.227105 779.313913,156.227105 L779.313913,156.227105 Z M779.314919,175.104728 C752.735501,175.104728 731.184733,153.557498 731.184733,126.977881 C731.184733,100.398265 752.735501,78.8500132 779.314919,78.8500132 C805.89638,78.8500132 827.447148,100.398265 827.447148,126.977881 C827.447148,153.557498 805.89638,175.104728 779.314919,175.104728 L779.314919,175.104728 L779.314919,175.104728 Z" id="Shape"></path>
                    <path d="M271.991989,173.056756 L248.286291,173.056756 L244.885825,173.056756 L228.36722,173.056756 L228.36722,79.8739995 L248.286291,79.8739995 L248.286291,111.941437 L271.991989,111.941437 C288.620485,111.941437 302.100135,125.939615 302.100135,142.499096 C302.100135,159.061646 288.620485,173.056756 271.991989,173.056756 L271.991989,173.056756 Z M271.756077,129.982685 L247.824517,129.982685 L247.824517,154.558357 L271.756077,154.558357 C278.325281,154.558357 283.666906,148.732461 283.666906,142.270011 C283.666906,135.807561 278.325281,129.982685 271.756077,129.982685 L271.756077,129.982685 Z" id="Shape"></path>
                    <path d="M206.768115,50.3140266 C206.768115,50.3140266 202.294474,45.2102235 199.882287,42.7948393 C189.678295,32.590301 177.797326,24.5802652 164.570687,18.9845909 C150.881856,13.1935998 136.337154,10.2577115 121.336396,10.2577115 C106.333593,10.2577115 91.7888909,13.1935998 78.1021054,18.9845909 C64.8744432,24.5802652 52.9934749,32.590301 42.7905054,42.7948393 C32.5854909,53.0014227 24.5748612,64.8820045 18.980509,78.1093521 C13.191873,91.7989156 10.2551193,106.346441 10.2551193,121.34698 C10.2551193,136.347518 13.191873,150.895044 18.980509,164.584607 C24.5748612,177.811955 32.5854909,189.692537 42.7905054,199.897075 C52.9944974,210.102636 64.8754658,218.112672 78.1021054,223.708346 C91.7888909,229.499337 106.333593,232.435225 121.336396,232.435225 C136.337154,232.435225 150.882879,229.499337 164.570687,223.708346 C174.20512,219.63328 183.120704,214.269736 191.198821,207.715884 C190.767307,206.444791 190.525986,205.081664 190.525986,203.663316 C190.525986,196.741327 196.137721,191.129292 203.058316,191.129292 C209.980956,191.129292 215.592692,196.741327 215.592692,203.663316 C215.592692,210.586326 209.980956,216.19734 203.058316,216.19734 C201.340438,216.19734 199.701296,215.850678 198.2094,215.222801 C177.28094,232.384095 150.512717,242.687826 121.336396,242.687826 C54.3238079,242.687826 0,188.362133 0,121.345957 C0,54.3297818 54.3238079,0.00306582733 121.336396,0.00306582733 C158.820907,0.00306582733 192.321577,17.0150608 214.57628,43.7274517 C215.502708,44.654951 216.078401,45.9362704 216.078401,47.350528 C216.077379,50.1862014 213.782784,52.4798961 210.948285,52.4798961 C209.222227,52.4798961 207.698632,51.6250014 206.768115,50.3140266 Z" id="Shape"></path>
                </g>
            </g>
            <g id="meteor" transform="translate(1018.000000, 15.000000)">
                <g id="Group" transform="translate(321.000000, 75.000000) scale(1, -1) translate(-321.000000, -75.000000) ">
                    <g transform="translate(388.000000, 0.000000)" id="Shape">
                        <path d="M129.114111,11.7997005 L-5.55111512e-17,149 L137.200148,19.8866857 C139.500607,17.7219725 139.61039,14.102141 137.445663,11.7997005 C135.279939,9.49925616 131.661083,9.38947356 129.358628,11.5551848 C129.279784,11.6300365 129.189961,11.7208567 129.114111,11.7997005"></path>
                        <path d="M110.098859,2.83658757 L13,108 L118.164633,10.9002771 C120.479947,8.76316549 120.624281,5.15287021 118.486149,2.83559217 C116.348017,0.52030493 112.736685,0.374977356 110.420375,2.51507519 C110.311876,2.61561002 110.199395,2.72908498 110.098859,2.83658757"></path>
                        <path d="M90.4113178,2.2216396 L26,72 L95.7776856,7.58813574 C97.3197339,6.16528396 97.4151183,3.76173755 95.9932941,2.2216396 C94.5704764,0.681541653 92.1659938,0.584167718 90.6269263,2.00602589 C90.5524072,2.07458509 90.4768945,2.15009957 90.4113178,2.2216396"></path>
                        <path d="M145.40099,50.2193677 L78,123 L150.779725,55.598022 C152.322339,54.1699549 152.414956,51.7609631 150.985872,50.2193677 C149.556787,48.6777723 147.150747,48.585157 145.607137,50.01422 C145.537426,50.0769593 145.465723,50.151649 145.40099,50.2193677"></path>
                        <path d="M139.04712,29.8444419 L41,136 L147.155415,37.9527478 C149.483222,35.803076 149.627334,32.1742538 147.476664,29.8444419 C145.327996,27.5166315 141.697177,27.3725194 139.368369,29.5241928 C139.258284,29.6232699 139.147198,29.7373586 139.04712,29.8444419"></path>
                        <path d="M70.697495,7.61459557 L40,41 L73.3850189,10.3021505 C74.1584285,9.59044613 74.2091929,8.38701876 73.4984921,7.61459557 C72.786796,6.84117698 71.5833825,6.79140745 70.8109682,7.50112102 C70.7721484,7.53795048 70.7333286,7.57677072 70.697495,7.61459557"></path>
                        <path d="M142.697081,74.6145776 L112,108 L145.384656,77.3030492 C146.159075,76.5903703 146.208845,75.3879735 145.498131,74.6145776 C144.786421,73.8411816 143.582985,73.7914136 142.809561,74.5011064 C142.772731,74.5379347 142.73192,74.5777492 142.697081,74.6145776"></path>
                    </g>
                    <polygon id="Shape" points="-1.26217745e-29 94 22.0537294 94 46.4989964 54.6754613 70.945267 94 93 94 93 1 72.8039021 1 72.8039021 61.7154419 46.6304657 21.9924895 46.1015777 21.9924895 20.1930871 61.3170282 20.1930871 1 -1.26217745e-29 1"></polygon>
                    <polygon id="Shape" points="127 94 196.344002 94 196.344002 75.7994173 147.000994 75.7994173 147.000994 56.9334736 190.423119 56.9334736 190.423119 38.7318873 147.000994 38.7318873 147.000994 19.2025898 197 19.2025898 197 1 127 1"></polygon>
                    <polygon id="Shape" points="250.276423 75.1348563 222 75.1348563 222 94 299 94 299 75.1348563 270.721572 75.1348563 270.721572 1 250.276423 1"></polygon>
                    <polygon id="Shape" points="328 94 397.342023 94 397.342023 75.7994173 348.00071 75.7994173 348.00071 56.9334736 391.422218 56.9334736 391.422218 38.7318873 348.00071 38.7318873 348.00071 19.2025898 398 19.2025898 398 1 328 1"></polygon>
                    <path d="M562,94 L604.3114,94 C616.037208,94 625.029092,90.8548398 631.288051,84.5675299 C636.579099,79.2536743 639.222125,72.1665264 639.222125,63.3111039 L639.222125,63.0441567 C639.222125,55.5144383 637.392184,49.3816769 633.735298,44.6428618 C630.076414,39.9030431 625.292796,36.4277112 619.387439,34.2128521 L642,1 L618.197778,1 L598.363092,30.758595 L598.100387,30.758595 L582.362093,30.758595 L582.362093,1.00100356 L562,1.00100356 L562,94 L562,94 Z M602.49756,49.2942376 C607.489703,49.2942376 611.320652,50.5036623 613.993384,52.9204824 C616.66413,55.3393318 618,58.5627732 618,62.5928359 L618,62.8617097 C618,67.3382044 616.597635,70.6955754 613.793896,72.935852 C610.99115,75.1730847 607.094699,76.2942376 602.103548,76.2942376 L582,76.2942376 L582,49.2942376 L602.49756,49.2942376 L602.49756,49.2942376 Z" id="Shape"></path>
                </g>
            </g>
        </g>
    </g>
</svg>